HIERARCHY
ROOT Hips
{
	OFFSET 0.00000 0.00000 0.00000
	CHANNELS 6 Xposition Yposition Zposition Zrotation Yrotation Xrotation 
	JOINT LHipJoint
	{
		OFFSET 0 0 0
		CHANNELS 3 Zrotation Yrotation Xrotation
		JOINT LeftUpLeg
		{
			OFFSET 1.36443 -1.53315 0.80540
			CHANNELS 3 Zrotation Yrotation Xrotation
			JOINT LeftLeg
			{
				OFFSET 2.27494 -6.25036 0.00000
				CHANNELS 3 Zrotation Yrotation Xrotation
				JOINT LeftFoot
				{
					OFFSET 2.17461 -5.97470 0.00000
					CHANNELS 3 Zrotation Yrotation Xrotation
					JOINT LeftToeBase
					{
						OFFSET 0.22144 -0.60841 2.08966
						CHANNELS 3 Zrotation Yrotation Xrotation
						End Site
						{
							OFFSET 0.00000 -0.00000 1.09206
						}
					}
				}
			}
		}
	}
	JOINT RHipJoint
	{
		OFFSET 0 0 0
		CHANNELS 3 Zrotation Yrotation Xrotation
		JOINT RightUpLeg
		{
			OFFSET -1.29957 -1.53315 0.80539
			CHANNELS 3 Zrotation Yrotation Xrotation
			JOINT RightLeg
			{
				OFFSET -2.23917 -6.15209 0.00000
				CHANNELS 3 Zrotation Yrotation Xrotation
				JOINT RightFoot
				{
					OFFSET -2.18029 -5.99030 0.00000
					CHANNELS 3 Zrotation Yrotation Xrotation
					JOINT RightToeBase
					{
						OFFSET -0.22354 -0.61416 1.89975
						CHANNELS 3 Zrotation Yrotation Xrotation
						End Site
						{
							OFFSET -0.00000 -0.00000 1.00221
						}
					}
				}
			}
		}
	}
	JOINT LowerBack
	{
		OFFSET 0 0 0
		CHANNELS 3 Zrotation Yrotation Xrotation
		JOINT Spine
		{
			OFFSET -0.04725 2.10352 -0.01215
			CHANNELS 3 Zrotation Yrotation Xrotation
			JOINT Spine1
			{
				OFFSET 0.04471 2.09612 -0.07192
				CHANNELS 3 Zrotation Yrotation Xrotation
				JOINT Neck
				{
					OFFSET 0 0 0
					CHANNELS 3 Zrotation Yrotation Xrotation
					JOINT Neck1
					{
						OFFSET -0.01586 1.38087 0.11506
						CHANNELS 3 Zrotation Yrotation Xrotation
						JOINT Head
						{
							OFFSET -0.01055 1.38869 -0.12115
							CHANNELS 3 Zrotation Yrotation Xrotation
							End Site
							{
								OFFSET -0.00310 1.39537 -0.05348
							}
						}
					}
				}
				JOINT LeftShoulder
				{
					OFFSET 0 0 0
					CHANNELS 3 Zrotation Yrotation Xrotation
					JOINT LeftArm
					{
						OFFSET 2.71932 0.62535 0.37316
						CHANNELS 3 Zrotation Yrotation Xrotation
						JOINT LeftForeArm
						{
							OFFSET 4.47366 -0.00000 0.00000
							CHANNELS 3 Zrotation Yrotation Xrotation
							JOINT LeftHand
							{
								OFFSET 3.19948 -0.00000 -0.00000
								CHANNELS 3 Zrotation Yrotation Xrotation
								JOINT LeftFingerBase
								{
									OFFSET 0 0 0
									CHANNELS 3 Zrotation Yrotation Xrotation
									JOINT LeftHandIndex1
									{
										OFFSET 0.49267 -0.00000 -0.00000
										CHANNELS 3 Zrotation Yrotation Xrotation
										End Site
										{
											OFFSET 0.39720 -0.00000 -0.00000
										}
									}
								}
								JOINT LThumb
								{
									OFFSET 0 0 0
									CHANNELS 3 Zrotation Yrotation Xrotation
									End Site
									{
										OFFSET 0.40327 -0.00000 0.40327
									}
								}
							}
						}
					}
				}
				JOINT RightShoulder
				{
					OFFSET 0 0 0
					CHANNELS 3 Zrotation Yrotation Xrotation
					JOINT RightArm
					{
						OFFSET -2.97334 0.70851 0.47631
						CHANNELS 3 Zrotation Yrotation Xrotation
						JOINT RightForeArm
						{
							OFFSET -4.32690 -0.00000 -0.00000
							CHANNELS 3 Zrotation Yrotation Xrotation
							JOINT RightHand
							{
								OFFSET -3.18960 -0.00000 0.00000
								CHANNELS 3 Zrotation Yrotation Xrotation
								JOINT RightFingerBase
								{
									OFFSET 0 0 0
									CHANNELS 3 Zrotation Yrotation Xrotation
									JOINT RightHandIndex1
									{
										OFFSET -0.46450 -0.00000 -0.00000
										CHANNELS 3 Zrotation Yrotation Xrotation
										End Site
										{
											OFFSET -0.37449 -0.00000 -0.00000
										}
									}
								}
								JOINT RThumb
								{
									OFFSET 0 0 0
									CHANNELS 3 Zrotation Yrotation Xrotation
									End Site
									{
										OFFSET -0.38021 -0.00000 0.38021
									}
								}
							}
						}
					}
				}
			}
		}
	}
}
MOTION
Frames: 11
Frame Time: 0.00952381
0.00 0.00 0.00 0 0 0 0 0 0 -21 0 0 0 0 0 0 0 0 0 0 0 0 0 0 21 0 0 0 0 0 0 0 0 0 0 0 0 0 0 0 0 0 0 0 0 0 0 -16 0 0 21 0 0 11 0 0 0 -8 0 0 0 0 0 0 0 0 0 0 0 0 0 0 0 0 0 0 0 0 8 0 0 0 0 0 0 0 0 0 0 0 0 0 0 0 0 0
0.00 0.00 0.00 -6.0997 81.3650 -2.0349 0.0000 0.0000 0.0000 -24.4216 5.5113 -39.7392 4.6579 12.9878 39.3230 0.1108 9.5554 -15.3574 0.0304 -1.1264 -3.0966 0.0000 0.0000 0.0000 26.5262 9.2405 -11.8391 -4.0725 -12.2562 36.6446 -1.1096 -13.4568 -28.8449 -0.0148 0.7857 -2.1593 4.4285 1.8202 -3.1531 1.7914 2.3457 -1.7481 -0.5644 1.1711 0.0707 8.6896 9.1806 -5.3850 -9.3695 12.8973 11.2801 -3.3877 6.2273 5.4507 -0.0000 -0.0000 0.0000 -15.9524 -9.6428 -67.0162 19.5474 -30.0931 -5.3025 -0.0000 -0.0000 104.0850 16.1408 -8.9341 -2.5734 -7.1250 0.0000 -0.0000 -7.7376 20.7230 4.5400 -0.0000 -0.0000 0.0000 20.9798 -8.7982 -58.5295 -26.5119 37.7097 -9.1990 0.0000 -0.0000 -42.2843 -30.7257 -30.8516 16.9512 7.1250 -0.0000 -0.0000 0.8789 -64.7726 -0.4205
0.00 0.00 0.00 4.0499 66.7967 6.8376 0.0000 0.0000 0.0000 -19.2326 12.3344 -38.9895 5.2847 13.6974 42.0385 0.5913 6.8588 -18.6218 0.1633 -2.6035 -7.1767 0.0000 0.0000 0.0000 21.9918 14.9325 -14.2851 -4.4271 -12.7080 38.2852 -1.1824 -6.8905 -24.1046 -0.0087 0.6037 -1.6590 1.7351 -0.7561 -1.1028 0.6789 -1.0282 -0.2009 -0.2918 -0.5108 0.3943 11.6016 13.9936 -2.5650 -12.0080 19.9851 11.6993 -3.9672 9.7310 6.3462 0.0000 0.0000 0.0000 -9.7451 -41.0550 -23.3408 35.1639 -44.9288 -14.9290 -0.0000 -0.0000 111.8790 28.5813 -8.3054 -4.4996 -7.1250 0.0000 -0.0000 1.2320 20.5423 -0.7215 0.0000 0.0000 0.0000 30.5227 -16.7311 -57.5020 -21.3070 32.1850 -6.2127 0.0000 -0.0000 -42.0151 -29.9818 -31.0167 16.5564 7.1250 -0.0000 -0.0000 1.9318 -64.7363 -0.9227
0.00 0.00 0.00 6.8144 61.5890 11.0176 0.0000 0.0000 0.0000 -13.5589 12.2907 -29.4649 4.8517 13.2148 40.1778 0.1151 15.4081 -23.0033 0.2354 -3.1228 -8.6207 0.0000 0.0000 0.0000 18.8446 19.7405 -16.6692 -4.6488 -12.9770 39.2826 -1.0644 -7.3003 -23.4204 -0.0278 1.0769 -2.9603 -0.2847 -3.6559 -1.9418 0.4303 -4.8686 -0.7457 0.4880 -2.4326 0.3824 10.8572 15.2382 -2.3166 -13.8727 21.7799 9.6957 -4.2545 10.5316 6.0321 0.0000 0.0000 0.0000 -19.8280 -49.6583 16.9016 56.7010 -55.3648 -31.6111 -0.0000 -0.0000 146.3060 32.2933 -3.1015 -1.9584 -7.1250 0.0000 -0.0000 4.3208 26.3080 -1.9635 0.0000 0.0000 0.0000 41.9796 -22.7805 -62.9406 -19.3387 29.8374 -5.1983 0.0000 -0.0000 -41.7034 -31.7065 -34.3342 19.2100 7.1250 -0.0000 -0.0000 1.5889 -68.7330 -0.9045
0.00 0.00 0.00 9.6276 68.2074 16.4394 0.0000 0.0000 0.0000 -15.2888 24.3950 -25.2852 6.2493 14.6656 45.9742 0.7705 7.4004 -20.8736 0.8149 -5.7603 -16.0906 0.0000 0.0000 0.0000 11.7159 25.4045 -19.8081 -4.5659 -12.8776 38.9118 0.9388 -22.1117 -23.6120 -0.3517 3.8104 -10.5438 -2.6518 -5.2185 -2.9153 1.2895 -6.8919 -0.2810 2.4659 -3.4681 1.8074 10.9503 14.7541 -2.5864 -17.9994 21.4690 7.8585 -5.5520 10.2753 5.9738 0.0000 0.0000 0.0000 -30.0129 -15.8265 -16.8199 23.5710 -34.7073 -7.4609 -0.0000 0.0000 -176.8440 27.3954 -11.6360 -5.9673 -7.1250 0.0000 -0.0000 0.1583 16.9216 -0.1053 0.0000 0.0000 0.0000 56.9681 -31.9425 -62.5302 -15.8903 25.3716 -3.5988 0.0000 -0.0000 -25.8685 -27.1494 -41.2678 18.6877 7.1250 -0.0000 -0.0000 16.3534 -74.0465 -11.3035
0.00 0.00 0.00 184.5380 38.5699 190.5250 0.0000 0.0000 0.0000 -17.6520 11.3851 -38.9768 6.5488 14.9399 47.1464 0.1726 -9.0190 -9.1233 0.3138 -3.6012 -9.9573 0.0000 0.0000 0.0000 15.5815 0.4345 -4.0565 -3.7033 -11.7548 34.8700 3.4663 -30.8072 -12.5892 -0.2866 3.4430 -9.5145 0.7495 3.2449 -6.5370 1.2995 4.2477 0.1257 1.3322 2.1245 3.7443 7.8446 4.6572 -10.2944 -14.7379 10.1832 22.9825 -5.2139 4.4735 10.1622 -0.0000 -0.0000 0.0000 -20.0740 8.0765 -50.0254 19.5205 -30.0603 -5.2891 -0.0000 0.0000 -178.5640 24.3269 -13.6698 -6.0983 -7.1250 0.0000 -0.0000 -2.0997 15.0421 1.4838 -0.0000 -0.0000 0.0000 30.1859 -17.6726 -41.9652 -17.5847 27.6222 -4.3550 0.0000 -0.0000 -20.3241 -18.0006 -36.7068 10.9910 7.1250 -0.0000 -0.0000 21.6066 -66.8840 -11.6138
0.00 0.00 0.00 185.2300 23.7768 189.5740 0.0000 0.0000 0.0000 -18.3560 8.0054 -35.9335 5.8281 14.2597 44.2880 0.0710 -11.3002 -8.9337 0.3435 -3.7663 -10.4200 0.0000 0.0000 0.0000 15.3646 -2.7656 -0.5420 -4.0970 -12.2883 36.7597 0.7711 -19.5823 5.8558 -0.2696 3.3400 -9.2269 1.5114 4.1380 -8.0088 1.5104 5.3778 -0.3420 1.3358 2.7092 4.1150 6.3379 2.5863 -11.0454 -12.3816 7.8951 26.4649 -4.4433 3.6257 11.0959 -0.0000 -0.0000 0.0000 -20.7272 12.3767 -50.7176 19.4340 -29.9544 -5.2458 -0.0000 -0.0000 178.9110 22.7582 -13.3717 -5.5414 -7.1250 0.0000 -0.0000 -3.1578 15.5395 2.1998 -0.0000 -0.0000 0.0000 27.0242 -13.7588 -40.8606 -17.1719 27.0838 -4.1653 0.0000 -0.0000 -17.7169 -18.1212 -35.8650 10.8538 7.1250 -0.0000 -0.0000 20.4998 -66.1517 -10.6551
0.00 0.00 0.00 314.9230 -77.0790 55.3687 0.0000 0.0000 0.0000 -23.7862 1.1667 -18.9606 4.3772 12.6461 38.0576 1.2605 -12.5007 -20.6325 0.5087 -4.5719 -12.6916 0.0000 0.0000 0.0000 10.1979 23.9713 -2.8567 -4.5785 -12.8928 38.9684 -0.3652 -28.3221 -41.3108 -3.6897 -11.7356 34.8029 3.6452 4.8688 -11.8068 0.8712 5.8879 -1.4088 -0.1608 2.9406 5.3921 5.9873 1.9779 -5.6954 -0.8609 0.8368 34.5344 -1.3812 0.6107 12.4078 -0.0000 -0.0000 0.0000 -22.1614 17.0223 -55.5080 18.3517 -28.6052 -4.7164 -0.0000 -0.0000 171.8270 20.1040 -13.1516 -4.7607 -7.1250 0.0000 -0.0000 -4.9754 16.0423 3.4198 -0.0000 -0.0000 0.0000 30.5856 -18.1577 -47.3211 -17.3200 27.2777 -4.2330 0.0000 -0.0000 -16.9355 -23.3477 -34.3503 13.6886 7.1250 -0.0000 -0.0000 12.7183 -66.2278 -6.5584
0.00 0.00 0.00 336.1250 -64.8756 33.9214 0.0000 0.0000 0.0000 -22.8334 -0.3538 -17.1090 4.2542 12.4913 37.4928 1.6627 -9.4348 -23.1256 0.5072 -4.5652 -12.6724 0.0000 0.0000 0.0000 9.8647 31.9181 -0.6289 -4.5560 -12.8656 38.8673 -6.2127 -14.9626 -53.0809 -6.3043 -14.7169 46.1912 4.1235 4.7230 -11.7187 1.3698 5.6157 -1.5436 0.0328 2.8103 5.1863 5.6901 0.8315 -6.4068 -0.6554 -0.7056 35.1635 -1.4280 0.0015 12.7583 -0.0000 -0.0000 0.0000 -23.7505 16.1696 -53.6654 18.4411 -28.7183 -4.7593 -0.0000 -0.0000 171.9040 21.6150 -12.3657 -4.8501 -7.1250 0.0000 -0.0000 -3.9021 16.7306 2.6197 -0.0000 -0.0000 0.0000 31.6768 -19.0983 -48.3634 -17.4273 27.4177 -4.2823 0.0000 -0.0000 -17.8488 -23.0236 -33.9900 13.3642 7.1250 -0.0000 -0.0000 12.7928 -65.7822 -6.4664
0.00 0.00 0.00 346.1190 -43.9031 23.5376 0.0000 0.0000 0.0000 -22.3765 -5.5676 -13.4586 4.0671 12.2491 36.6190 2.3414 -1.9122 -28.4519 0.4332 -4.2236 -11.7065 0.0000 0.0000 0.0000 10.6313 45.2567 0.4241 -4.7675 -13.1170 39.8082 -11.6595 4.8726 -65.6263 -7.9179 -16.0586 52.2666 2.6075 2.4167 -10.7944 3.5182 2.6834 -1.4368 2.5948 1.3240 4.4991 2.4508 -0.2241 -5.6497 -0.5900 -1.3006 34.5641 -0.8641 -0.5758 12.3100 0.0000 0.0000 0.0000 -30.8671 17.3291 -53.0484 18.3317 -28.5799 -4.7069 -0.0000 -0.0000 170.9570 20.8476 -13.0411 -4.9114 -7.1250 0.0000 -0.0000 -4.4586 16.0873 3.0579 0.0000 0.0000 0.0000 29.8797 -16.6952 -44.3798 -17.4936 27.5038 -4.3128 0.0000 -0.0000 -20.7108 -22.4409 -33.0775 12.7026 7.1250 -0.0000 -0.0000 12.7168 -64.7245 -6.1164
0.00 0.00 0.00 355.5150 0.7399 15.4328 0.0000 0.0000 0.0000 -25.2759 -10.9022 -1.1258 2.4069 9.6666 27.9036 1.5834 12.2942 -30.9768 0.7078 -5.3769 -14.9868 0.0000 0.0000 0.0000 -3.6449 31.0971 -38.6761 -4.5674 -12.8794 38.9186 -0.2970 -19.5539 -29.8253 -1.0343 -6.4686 18.1502 -4.0384 -0.8293 -6.3350 3.5188 -0.9414 0.2434 5.8636 -0.5889 3.9396 2.0135 -4.4656 -6.3132 0.8567 -7.2505 33.9536 -0.8895 -2.9016 12.1820 0.0000 0.0000 0.0000 -47.3274 10.9805 -37.9908 20.9558 -31.7767 -6.0266 -0.0000 -0.0000 175.3640 25.1947 -8.3955 -3.9294 -7.1250 0.0000 -0.0000 -1.2112 20.7171 0.7046 0.0000 0.0000 0.0000 32.0928 -14.3429 -46.7206 -17.9187 28.0530 -4.5109 0.0000 -0.0000 -18.1587 -17.9630 -31.1060 9.5083 7.1250 -0.0000 -0.0000 16.2920 -61.6335 -6.6937
